<?xml version="1.0" standalone="no"?><!DOCTYPE svg PUBLIC "-//W3C//DTD SVG 1.1//EN" "http://www.w3.org/Graphics/SVG/1.1/DTD/svg11.dtd"><svg t="1781011384061" class="icon" viewBox="0 0 1024 1024" version="1.1" xmlns="http://www.w3.org/2000/svg" p-id="62336" xmlns:xlink="http://www.w3.org/1999/xlink" width="200" height="200"><path d="M714.615467 27.8528H313.207467l-283.989334 283.989333v400.861867l283.989334 283.989333h401.408l283.4432-283.989333V311.842133z" fill="#F8D158" p-id="62337"></path><path d="M660.548267 846.872576l61.23793 147.838293-10.092544 4.183382-61.23793-147.838294zM851.110571 649.101312l147.838293 61.243392-4.183381 10.087083-147.838294-61.237931z" fill="" p-id="62338"></path><path d="M998.288043 315.413845l-145.053014 67.545771-4.609365-9.901397 145.053013-67.545771z" fill="" p-id="62339"></path><path d="M721.769813 32.768l-61.23793 147.838293-10.092544-4.17792 61.23793-147.838293zM379.338752 851.170645l-61.237931 147.838294-10.092544-4.17792 61.237931-147.838294z" fill="" p-id="62340"></path><path d="M29.496661 708.143787l145.053014-67.54031 4.614826 9.901398-145.053013 67.540309z" fill="" p-id="62341"></path><path d="M29.720576 303.377067l147.838293 61.232469-4.17792 10.092544-147.838293-61.237931zM323.518464 28.453547l61.243392 147.838293-10.092544 4.17792L313.42592 32.631467z" fill="" p-id="62342"></path><path d="M676.932267 127.7952H363.451733L141.7216 349.525333v313.480534l221.730133 221.184h313.480534l221.730133-221.184V349.525333z" fill="#E54B41" p-id="62343"></path><path d="M604.296533 293.2736H422.980267L294.638933 421.614933v181.316267l128.341334 128.341333h181.316266l128.341334-128.341333V421.614933z" fill="#F8D158" p-id="62344"></path><path d="M611.374421 298.740395l-61.23793 147.838293-10.087083-4.17792 61.237931-147.838293z" fill="" p-id="62345"></path><path d="M736.449877 424.219989l-145.053013 67.54031-4.614827-9.901398 145.053014-67.540309z" fill="" p-id="62346"></path><path d="M587.890688 536.728917l147.838293 61.237931-4.17792 10.092544-147.838293-61.237931zM550.628011 576.842411l61.23793 147.838293-10.092544 4.183381-61.23793-147.838293zM489.373696 581.118635l-61.237931 147.838293-10.087082-4.17792 61.23793-147.838293z" fill="" p-id="62347"></path><path d="M289.396053 595.667627l145.058475-67.545771 4.609365 9.901397-145.053013 67.545771z" fill="" p-id="62348"></path><path d="M297.424213 417.13664l147.838294 61.237931-4.183382 10.092544-147.838293-61.237931zM427.906389 294.802773l61.237931 147.838294-10.087083 4.183381-61.23793-147.838293z" fill="" p-id="62349"></path><path d="M513.6384 512.273067m-80.827733 0a80.827733 80.827733 0 1 0 161.655466 0 80.827733 80.827733 0 1 0-161.655466 0Z" fill="#E54B41" p-id="62350"></path><path d="M200.157867 214.6304m-10.922667 0a10.922667 10.922667 0 1 0 21.845333 0 10.922667 10.922667 0 1 0-21.845333 0Z" fill="" p-id="62351"></path><path d="M829.303467 214.6304m-10.922667 0a10.922667 10.922667 0 1 0 21.845333 0 10.922667 10.922667 0 1 0-21.845333 0Z" fill="" p-id="62352"></path><path d="M829.303467 813.738667m-10.922667 0a10.922667 10.922667 0 1 0 21.845333 0 10.922667 10.922667 0 1 0-21.845333 0Z" fill="" p-id="62353"></path><path d="M200.157867 813.738667m-10.922667 0a10.922667 10.922667 0 1 0 21.845333 0 10.922667 10.922667 0 1 0-21.845333 0Z" fill="" p-id="62354"></path><path d="M722.261333 10.376533H305.5616l-294.912 294.912v416.699734l294.912 294.912h416.699733l294.912-294.912V304.7424l-294.912-294.365867z m274.705067 702.8736L714.069333 996.693333H313.7536L30.3104 713.250133V312.9344L313.7536 30.037333H714.069333l282.897067 282.897067v400.315733z" fill="" p-id="62355"></path><path d="M681.301333 123.972267H360.721067L134.075733 350.6176v320.580267l226.645334 226.645333H681.301333l226.645334-226.645333V350.6176L681.301333 123.972267z m211.3536 540.672l-217.9072 217.9072H367.274667l-217.9072-217.9072V356.625067l217.9072-217.9072h308.0192l217.9072 217.9072v308.0192z" fill="" p-id="62356"></path><path d="M606.481067 285.627733h-185.685334L289.1776 417.245867v185.685333l131.618133 131.618133h185.685334l131.618133-131.618133v-185.685333l-131.618133-131.618134z m122.333866 314.026667l-126.1568 126.1568H424.072533l-126.1568-126.1568V420.522667l126.1568-126.1568h178.5856L728.814933 420.522667v179.131733z" fill="" p-id="62357"></path><path d="M514.184533 425.984c-47.5136 0-86.289067 38.229333-86.289066 85.742933s38.775467 86.289067 86.289066 86.289067 86.289067-38.775467 86.289067-86.289067c-0.546133-46.967467-38.775467-85.742933-86.289067-85.742933z m0 162.2016c-42.052267 0-75.912533-33.860267-75.912533-75.912533s33.860267-75.912533 75.912533-75.912534 75.912533 33.860267 75.912534 75.912534-34.4064 75.912533-75.912534 75.912533z" fill="" p-id="62358"></path></svg>