<?xml version="1.0" standalone="no"?><!DOCTYPE svg PUBLIC "-//W3C//DTD SVG 1.1//EN" "http://www.w3.org/Graphics/SVG/1.1/DTD/svg11.dtd"><svg t="1781011216754" class="icon" viewBox="0 0 1024 1024" version="1.1" xmlns="http://www.w3.org/2000/svg" p-id="53113" xmlns:xlink="http://www.w3.org/1999/xlink" width="200" height="200"><path d="M691.2 691.2m-230.4 0a230.4 230.4 0 1 0 460.8 0 230.4 230.4 0 1 0-460.8 0Z" fill="#5AC8FA" p-id="53114"></path><path d="M512 972.8c256 0 460.8-204.8 460.8-460.8s-204.8-460.8-460.8-460.8-460.8 204.8-460.8 460.8 204.8 460.8 460.8 460.8z m0 51.2C230.4 1024 0 793.6 0 512S230.4 0 512 0s512 230.4 512 512-230.4 512-512 512z m0-819.2c15.36 0 25.6 10.24 25.6 25.6v460.8c0 15.36-10.24 25.6-25.6 25.6s-25.6-10.24-25.6-25.6v-460.8c0-15.36 10.24-25.6 25.6-25.6z m0 563.2c15.36 0 25.6 10.24 25.6 25.6s-10.24 25.6-25.6 25.6-25.6-10.24-25.6-25.6 10.24-25.6 25.6-25.6z" fill="" p-id="53115"></path></svg>