<?xml version="1.0" standalone="no"?><!DOCTYPE svg PUBLIC "-//W3C//DTD SVG 1.1//EN" "http://www.w3.org/Graphics/SVG/1.1/DTD/svg11.dtd"><svg t="1781011343079" class="icon" viewBox="0 0 1024 1024" version="1.1" xmlns="http://www.w3.org/2000/svg" p-id="60243" xmlns:xlink="http://www.w3.org/1999/xlink" width="200" height="200"><path d="M931.76 423.52l-0.34 121.13-433.37 7.03 0.34-121.13 433.37-7.03z" fill="#CBD0D8" p-id="60244"></path><path d="M498.39 430.55l-0.34 121.13-305.61 177.6 0.34-121.13 305.61-177.6z" fill="#D1D5E0" p-id="60245"></path><path d="M64.78 429.31l-0.34 121.13c-0.18 64.69 42.51 129.48 128 178.84l0.34-121.13C107.3 558.79 64.6 494 64.78 429.31z" fill="#C0C6CE" p-id="60246"></path><path d="M804 253c81.85 47.25 124.45 108.65 127.78 170.57l-433.37 7-305.63 177.58C22.9 510.06 22 351 190.78 252.95S634.1 154.87 804 253z" fill="#E1E4EF" p-id="60247"></path><path d="M959.36 449.41a153 153 0 0 1 0 16.09C955.9 526.72 914 587.29 833.55 634L526 456.44z" fill="#F98282" p-id="60248"></path><path d="M959.56 457.74q0 3.88-0.22 7.76-0.15 2.75-0.42 5.5c-0.06 0.6-0.13 1.2-0.2 1.8-0.13 1.23-0.26 2.46-0.43 3.69-0.09 0.72-0.21 1.44-0.32 2.16-0.16 1.11-0.33 2.22-0.51 3.32-0.13 0.77-0.28 1.53-0.42 2.3-0.19 1-0.38 2-0.6 3.06s-0.49 2.23-0.74 3.34c-0.2 0.86-0.39 1.72-0.61 2.58-0.28 1.14-0.6 2.28-0.91 3.42-0.23 0.83-0.44 1.65-0.68 2.48-0.35 1.2-0.73 2.39-1.11 3.59-0.24 0.76-0.47 1.53-0.72 2.29-0.45 1.35-0.93 2.69-1.42 4-0.22 0.61-0.42 1.22-0.65 1.83q-1.12 3-2.36 5.92c-0.19 0.44-0.4 0.89-0.59 1.33-0.66 1.53-1.32 3-2 4.57-0.33 0.72-0.69 1.43-1 2.14-0.6 1.24-1.2 2.49-1.83 3.73-0.4 0.79-0.83 1.58-1.25 2.37-0.61 1.16-1.23 2.32-1.88 3.47-0.43 0.77-0.87 1.54-1.31 2.3q-1.12 2-2.3 3.89-0.7 1.15-1.41 2.29c-0.82 1.32-1.68 2.63-2.54 3.94-0.47 0.71-0.93 1.42-1.4 2.12-1.05 1.55-2.14 3.1-3.25 4.65-0.32 0.44-0.61 0.88-0.93 1.32q-2.16 3-4.47 5.9c-0.29 0.38-0.61 0.75-0.9 1.12q-2.21 2.79-4.56 5.55l-1.61 1.89q-2.4 2.77-4.92 5.52l-0.94 1q-3 3.2-6.14 6.36l-1.74 1.76q-2.51 2.47-5.12 4.92c-0.66 0.61-1.3 1.23-2 1.84-1.06 1-2.14 1.94-3.23 2.9-0.85 0.75-1.69 1.51-2.55 2.26-1.13 1-2.3 2-3.46 2.94-0.85 0.72-1.69 1.44-2.56 2.15-1.24 1-2.5 2-3.77 3-0.83 0.66-1.65 1.33-2.49 2-1.43 1.12-2.89 2.22-4.36 3.33-0.72 0.54-1.41 1.09-2.14 1.63q-3.31 2.46-6.73 4.88l-0.19 0.13q-3.34 2.36-6.79 4.67c-0.78 0.52-1.59 1-2.38 1.56-1.6 1.06-3.21 2.12-4.85 3.17-1 0.61-1.95 1.22-2.92 1.83-1.51 0.94-3 1.89-4.55 2.82-2.2 1.33-4.42 2.66-6.67 4l-0.34 121.13q3-1.76 6-3.56l0.68-0.42c1.52-0.93 3-1.86 4.51-2.8 1-0.62 2-1.23 3-1.85 1.63-1 3.23-2.1 4.83-3.15 0.79-0.52 1.61-1 2.39-1.57q3.51-2.36 6.91-4.75h0.07q3.43-2.42 6.73-4.88c0.74-0.55 1.45-1.11 2.18-1.66 1.45-1.1 2.9-2.19 4.32-3.3 0.85-0.66 1.67-1.33 2.5-2 1.26-1 2.52-2 3.76-3 0.87-0.72 1.71-1.44 2.57-2.16 1.16-1 2.32-2 3.45-2.94 0.87-0.75 1.71-1.51 2.56-2.27 1.08-1 2.16-1.92 3.21-2.89l0.85-0.77c0.39-0.36 0.74-0.72 1.12-1.08q2.61-2.44 5.11-4.91l1.68-1.66q3.15-3.16 6.14-6.36l0.94-1q2.52-2.75 4.92-5.52l1.62-1.89q2.34-2.76 4.55-5.55c0.23-0.29 0.48-0.57 0.7-0.85l0.2-0.27q2.3-2.94 4.47-5.9c0.32-0.44 0.62-0.88 0.93-1.32 1.11-1.55 2.2-3.09 3.26-4.65 0.48-0.7 0.93-1.41 1.4-2.12 0.87-1.31 1.72-2.62 2.54-3.94q0.72-1.14 1.41-2.29 1.18-1.94 2.3-3.89c0.27-0.47 0.56-0.93 0.82-1.4 0.17-0.3 0.32-0.61 0.49-0.91a295.241 295.241 0 0 0 3.13-5.84c0.63-1.24 1.24-2.49 1.84-3.73 0.34-0.71 0.7-1.42 1-2.13 0.71-1.52 1.38-3.05 2-4.58 0.19-0.44 0.39-0.88 0.58-1.32q1.24-3 2.36-5.93l0.06-0.16c0.21-0.55 0.38-1.1 0.58-1.65 0.49-1.35 1-2.69 1.43-4 0.25-0.76 0.48-1.53 0.72-2.29 0.38-1.2 0.76-2.39 1.11-3.59 0.24-0.82 0.46-1.65 0.68-2.48 0.31-1.14 0.62-2.28 0.91-3.42 0.21-0.86 0.41-1.72 0.61-2.58 0.26-1.11 0.51-2.23 0.74-3.35 0.07-0.32 0.15-0.63 0.21-1 0.14-0.7 0.25-1.41 0.39-2.11s0.29-1.53 0.42-2.29c0.19-1.11 0.35-2.22 0.52-3.33 0.11-0.72 0.22-1.44 0.31-2.16 0.16-1.23 0.29-2.46 0.43-3.69 0.06-0.6 0.14-1.2 0.2-1.8q0.26-2.75 0.42-5.5 0.1-1.89 0.16-3.77t0.06-4z" fill="#F7706C" p-id="60249"></path><path d="M833.55 634.03l-0.34 121.13-307.59-177.59 0.34-121.13 307.59 177.59z" fill="#E86262" p-id="60250"></path><path d="M723.81 807.89q4.38-1.55 8.71-3.17l2.72-1q5.5-2.09 10.92-4.29l2.19-0.91q4.4-1.81 8.75-3.7l3.15-1.38q4.46-2 8.85-4l1.81-0.84q5.19-2.45 10.28-5l2.62-1.34q3.93-2 7.79-4.08l2.86-1.54c3.32-1.81 6.61-3.64 9.85-5.53l0.34-121.13c-3.24 1.88-6.53 3.71-9.84 5.52l-2.89 1.5q-3.85 2.07-7.77 4.07l-2.64 1.35q-5.09 2.56-10.27 5l-1.83 0.84q-4.38 2-8.83 4l-3.15 1.38q-4.34 1.89-8.75 3.7l-2.19 0.91q-5.41 2.2-10.92 4.29l-2.73 1q-4.33 1.62-8.7 3.17l-3.27 1.15q-5.25 1.83-10.56 3.56l-0.84 0.28q-4.8 1.56-9.66 3l-2.12 0.63c-2.54 0.76-5.09 1.52-7.65 2.25l-3.56 1c-2.1 0.59-4.19 1.17-6.3 1.74l-4.07 1.06c-2 0.51-3.91 1-5.88 1.51l-4.32 1.11c-1.9 0.46-3.8 0.92-5.7 1.37l-4.49 1c-1.88 0.42-3.75 0.85-5.63 1.25l-4.61 1q-2.79 0.58-5.59 1.15l-4.69 0.91-5.59 1.05-4.08 0.73q-4.75 0.84-9.53 1.62l-3 0.49q-6.13 1-12.29 1.84l-2.62 0.35q-5 0.68-10 1.29l-3.73 0.45q-5.16 0.6-10.34 1.13l-2.35 0.25q-5.59 0.55-11.21 1l-1.87 0.14q-4.69 0.38-9.39 0.7l-3.87 0.24q-3.72 0.23-7.44 0.43l-4.37 0.21q-3.51 0.16-7 0.3l-4.66 0.16-5.92 0.16-4.86 0.1-6 0.07h-15.56c-2.06 0-4.13-0.07-6.19-0.11l-4.61-0.1c-1.9 0-3.8-0.12-5.7-0.18l-4.84-0.17c-1.93-0.08-3.86-0.18-5.79-0.27l-4.75-0.23c-1.95-0.11-3.9-0.23-5.84-0.35l-4.68-0.29c-2-0.14-4-0.3-6-0.45l-4.5-0.34c-2.09-0.17-4.17-0.37-6.25-0.56l-4.2-0.38c-2.37-0.23-4.73-0.49-7.09-0.74l-3.33-0.35q-5.2-0.58-10.38-1.24l-1.34-0.18q-4.5-0.58-9-1.21l-2.56-0.38c-2.65-0.39-5.31-0.77-7.95-1.19l-3.88-0.63c-2.2-0.36-4.4-0.71-6.59-1.09l-4.26-0.76c-2-0.37-4.09-0.73-6.12-1.12l-4.46-0.87c-2-0.38-3.92-0.77-5.87-1.17l-4.16-0.88q-3.38-0.72-6.75-1.46l-4.22-1q-3.32-0.76-6.62-1.56l-4.13-1q-3.45-0.86-6.89-1.75l-3.7-1q-4.25-1.13-8.46-2.32l-2-0.54q-6-1.72-11.95-3.56l-3.21-1q-4.79-1.51-9.52-3.08l-2.63-0.87q-5.81-2-11.54-4.05l-2.53-0.94q-4.65-1.72-9.24-3.51l-3.59-1.41-3.76-1.52q-2.42-1-4.81-2l-3.73-1.59q-2.38-1-4.74-2.07l-3.68-1.64q-2.36-1.07-4.7-2.16l-3.58-1.67c-1.59-0.75-3.16-1.52-4.73-2.29l-3.42-1.68c-1.63-0.81-3.25-1.64-4.87-2.48-1-0.54-2.1-1.07-3.15-1.62-1.77-0.93-3.52-1.88-5.28-2.82-0.87-0.47-1.75-0.93-2.61-1.4q-3.9-2.15-7.74-4.36l-0.34 121.13q3.83 2.21 7.74 4.36c0.87 0.48 1.75 0.94 2.62 1.41 1.75 0.94 3.49 1.89 5.26 2.81 1.05 0.55 2.11 1.09 3.17 1.63 1.61 0.83 3.22 1.65 4.85 2.47l3.42 1.68c1.57 0.77 3.14 1.53 4.73 2.29l3.58 1.67q2.34 1.09 4.7 2.16l3.68 1.64q2.36 1 4.74 2.07l3.73 1.59q2.39 1 4.8 2l3.78 1.53 1.75 0.71 1.81 0.69q4.6 1.8 9.26 3.52l2.53 0.94q5.73 2.08 11.55 4.06l2.61 0.87q4.75 1.59 9.55 3.09l3.19 1q5.94 1.83 12 3.56l0.2 0.06 1.77 0.49q4.21 1.19 8.46 2.32l3.7 1q3.43 0.89 6.89 1.75l4.13 1q3.29 0.79 6.61 1.55l4.24 1q3.36 0.75 6.75 1.46l2.7 0.58 1.47 0.29c2 0.4 3.91 0.78 5.87 1.17l4.46 0.87c2 0.38 4.06 0.75 6.1 1.11l4.3 0.77c2.19 0.38 4.39 0.73 6.59 1.09l3.86 0.63c2.69 0.42 5.38 0.82 8.08 1.21l2.27 0.34h0.16q4.77 0.67 9.56 1.28l0.78 0.1q5.19 0.66 10.4 1.24l3.07 0.32c2.45 0.26 4.9 0.53 7.35 0.77l4 0.37c2.13 0.2 4.27 0.4 6.41 0.57h0.4l4 0.3c2 0.16 4.07 0.32 6.1 0.46l4.6 0.29c2 0.12 3.95 0.25 5.93 0.36l4.71 0.23c1.94 0.09 3.88 0.19 5.82 0.27l4.81 0.17c1.91 0.06 3.82 0.13 5.74 0.18h1l3.54 0.06c2.08 0 4.16 0.08 6.24 0.11h15.57l6-0.07 4.83-0.1 6-0.16 2.29-0.06 2.34-0.1q3.52-0.13 7-0.3l4.37-0.21q3.72-0.2 7.42-0.43l3.9-0.24q4.69-0.32 9.37-0.7l1.89-0.14q5.61-0.47 11.21-1l0.57-0.05 1.79-0.2q5.18-0.53 10.34-1.13l3.74-0.45q5-0.61 10-1.29l2.62-0.35q6.17-0.86 12.3-1.84l3-0.49q4.79-0.78 9.55-1.62l2-0.34 2-0.39 5.61-1.06 4.68-0.91q2.81-0.56 5.61-1.15l4.58-1c1.9-0.41 3.79-0.84 5.68-1.26l4.45-1c1.92-0.45 3.82-0.91 5.73-1.37l4.32-1.05c2-0.49 3.93-1 5.89-1.52l4.06-1.06c2.12-0.57 4.22-1.16 6.32-1.75l3.53-1c2.58-0.74 5.14-1.5 7.69-2.27l2.07-0.61q4.86-1.48 9.67-3h0.15l0.67-0.23q5.32-1.73 10.58-3.57z" fill="#17AF7C" p-id="60251"></path><path d="M804.64 649.93c-168.77 98.07-443.32 98.07-613.19 0L497 472.34z" fill="#54D3A9" p-id="60252"></path></svg>